<?xml version="1.0" encoding="UTF-8" standalone="no"?>
<!DOCTYPE svg PUBLIC "-//W3C//DTD SVG 1.1//EN" "http://www.w3.org/Graphics/SVG/1.1/DTD/svg11.dtd">
<svg width="37.29mm" height="25.93mm" viewBox="0 0 37.29 25.93" version="1.1" xmlns="http://www.w3.org/2000/svg">
<rect x="0.000" y="0" width="0.33" height="22.85" style="stroke-width:0;fill:white"/>
<rect x="0.330" y="0" width="0.33" height="22.85" style="stroke-width:0;fill:white"/>
<rect x="0.660" y="0" width="0.33" height="22.85" style="stroke-width:0;fill:white"/>
<rect x="0.990" y="0" width="0.33" height="22.85" style="stroke-width:0;fill:white"/>
<rect x="1.320" y="0" width="0.33" height="22.85" style="stroke-width:0;fill:white"/>
<rect x="1.650" y="0" width="0.33" height="22.85" style="stroke-width:0;fill:white"/>
<rect x="1.980" y="0" width="0.33" height="22.85" style="stroke-width:0;fill:white"/>
<rect x="2.310" y="0" width="0.33" height="22.85" style="stroke-width:0;fill:white"/>
<rect x="2.640" y="0" width="0.33" height="22.85" style="stroke-width:0;fill:white"/>
<rect x="2.970" y="0" width="0.33" height="22.85" style="stroke-width:0;fill:white"/>
<rect x="3.300" y="0" width="0.33" height="22.85" style="stroke-width:0;fill:white"/>
<rect x="3.630" y="0" width="0.33" height="25.40" style="stroke-width:0;fill:black"/>
<rect x="3.960" y="0" width="0.33" height="25.40" style="stroke-width:0;fill:white"/>
<rect x="4.290" y="0" width="0.33" height="25.40" style="stroke-width:0;fill:black"/>
<rect x="4.620" y="0" width="0.33" height="22.85" style="stroke-width:0;fill:white"/>
<rect x="4.950" y="0" width="0.33" height="22.85" style="stroke-width:0;fill:black"/>
<rect x="5.280" y="0" width="0.33" height="22.85" style="stroke-width:0;fill:black"/>
<rect x="5.610" y="0" width="0.33" height="22.85" style="stroke-width:0;fill:black"/>
<rect x="5.940" y="0" width="0.33" height="22.85" style="stroke-width:0;fill:white"/>
<rect x="6.270" y="0" width="0.33" height="22.85" style="stroke-width:0;fill:black"/>
<rect x="6.600" y="0" width="0.33" height="22.85" style="stroke-width:0;fill:black"/>
<rect x="6.930" y="0" width="0.33" height="22.85" style="stroke-width:0;fill:white"/>
<rect x="7.260" y="0" width="0.33" height="22.85" style="stroke-width:0;fill:white"/>
<rect x="7.590" y="0" width="0.33" height="22.85" style="stroke-width:0;fill:white"/>
<rect x="7.920" y="0" width="0.33" height="22.85" style="stroke-width:0;fill:black"/>
<rect x="8.250" y="0" width="0.33" height="22.85" style="stroke-width:0;fill:white"/>
<rect x="8.580" y="0" width="0.33" height="22.85" style="stroke-width:0;fill:white"/>
<rect x="8.910" y="0" width="0.33" height="22.85" style="stroke-width:0;fill:black"/>
<rect x="9.240" y="0" width="0.33" height="22.85" style="stroke-width:0;fill:white"/>
<rect x="9.570" y="0" width="0.33" height="22.85" style="stroke-width:0;fill:white"/>
<rect x="9.900" y="0" width="0.33" height="22.85" style="stroke-width:0;fill:white"/>
<rect x="10.230" y="0" width="0.33" height="22.85" style="stroke-width:0;fill:black"/>
<rect x="10.560" y="0" width="0.33" height="22.85" style="stroke-width:0;fill:white"/>
<rect x="10.890" y="0" width="0.33" height="22.85" style="stroke-width:0;fill:white"/>
<rect x="11.220" y="0" width="0.33" height="22.85" style="stroke-width:0;fill:black"/>
<rect x="11.550" y="0" width="0.33" height="22.85" style="stroke-width:0;fill:white"/>
<rect x="11.880" y="0" width="0.33" height="22.85" style="stroke-width:0;fill:black"/>
<rect x="12.210" y="0" width="0.33" height="22.85" style="stroke-width:0;fill:black"/>
<rect x="12.540" y="0" width="0.33" height="22.85" style="stroke-width:0;fill:white"/>
<rect x="12.870" y="0" width="0.33" height="22.85" style="stroke-width:0;fill:white"/>
<rect x="13.200" y="0" width="0.33" height="22.85" style="stroke-width:0;fill:white"/>
<rect x="13.530" y="0" width="0.33" height="22.85" style="stroke-width:0;fill:black"/>
<rect x="13.860" y="0" width="0.33" height="22.85" style="stroke-width:0;fill:white"/>
<rect x="14.190" y="0" width="0.33" height="22.85" style="stroke-width:0;fill:black"/>
<rect x="14.520" y="0" width="0.33" height="22.85" style="stroke-width:0;fill:white"/>
<rect x="14.850" y="0" width="0.33" height="22.85" style="stroke-width:0;fill:white"/>
<rect x="15.180" y="0" width="0.33" height="22.85" style="stroke-width:0;fill:white"/>
<rect x="15.510" y="0" width="0.33" height="22.85" style="stroke-width:0;fill:white"/>
<rect x="15.840" y="0" width="0.33" height="22.85" style="stroke-width:0;fill:black"/>
<rect x="16.170" y="0" width="0.33" height="22.85" style="stroke-width:0;fill:white"/>
<rect x="16.500" y="0" width="0.33" height="22.85" style="stroke-width:0;fill:black"/>
<rect x="16.830" y="0" width="0.33" height="22.85" style="stroke-width:0;fill:white"/>
<rect x="17.160" y="0" width="0.33" height="22.85" style="stroke-width:0;fill:black"/>
<rect x="17.490" y="0" width="0.33" height="22.85" style="stroke-width:0;fill:black"/>
<rect x="17.820" y="0" width="0.33" height="22.85" style="stroke-width:0;fill:black"/>
<rect x="18.150" y="0" width="0.33" height="22.85" style="stroke-width:0;fill:black"/>
<rect x="18.480" y="0" width="0.33" height="25.40" style="stroke-width:0;fill:white"/>
<rect x="18.810" y="0" width="0.33" height="25.40" style="stroke-width:0;fill:black"/>
<rect x="19.140" y="0" width="0.33" height="25.40" style="stroke-width:0;fill:white"/>
<rect x="19.470" y="0" width="0.33" height="25.40" style="stroke-width:0;fill:black"/>
<rect x="19.800" y="0" width="0.33" height="25.40" style="stroke-width:0;fill:white"/>
<rect x="20.130" y="0" width="0.33" height="22.85" style="stroke-width:0;fill:black"/>
<rect x="20.460" y="0" width="0.33" height="22.85" style="stroke-width:0;fill:white"/>
<rect x="20.790" y="0" width="0.33" height="22.85" style="stroke-width:0;fill:white"/>
<rect x="21.120" y="0" width="0.33" height="22.85" style="stroke-width:0;fill:white"/>
<rect x="21.450" y="0" width="0.33" height="22.85" style="stroke-width:0;fill:white"/>
<rect x="21.780" y="0" width="0.33" height="22.85" style="stroke-width:0;fill:black"/>
<rect x="22.110" y="0" width="0.33" height="22.85" style="stroke-width:0;fill:white"/>
<rect x="22.440" y="0" width="0.33" height="22.85" style="stroke-width:0;fill:black"/>
<rect x="22.770" y="0" width="0.33" height="22.85" style="stroke-width:0;fill:black"/>
<rect x="23.100" y="0" width="0.33" height="22.85" style="stroke-width:0;fill:white"/>
<rect x="23.430" y="0" width="0.33" height="22.85" style="stroke-width:0;fill:white"/>
<rect x="23.760" y="0" width="0.33" height="22.85" style="stroke-width:0;fill:black"/>
<rect x="24.090" y="0" width="0.33" height="22.85" style="stroke-width:0;fill:black"/>
<rect x="24.420" y="0" width="0.33" height="22.85" style="stroke-width:0;fill:white"/>
<rect x="24.750" y="0" width="0.33" height="22.85" style="stroke-width:0;fill:black"/>
<rect x="25.080" y="0" width="0.33" height="22.85" style="stroke-width:0;fill:black"/>
<rect x="25.410" y="0" width="0.33" height="22.85" style="stroke-width:0;fill:black"/>
<rect x="25.740" y="0" width="0.33" height="22.85" style="stroke-width:0;fill:white"/>
<rect x="26.070" y="0" width="0.33" height="22.85" style="stroke-width:0;fill:black"/>
<rect x="26.400" y="0" width="0.33" height="22.85" style="stroke-width:0;fill:white"/>
<rect x="26.730" y="0" width="0.33" height="22.85" style="stroke-width:0;fill:white"/>
<rect x="27.060" y="0" width="0.33" height="22.85" style="stroke-width:0;fill:black"/>
<rect x="27.390" y="0" width="0.33" height="22.85" style="stroke-width:0;fill:black"/>
<rect x="27.720" y="0" width="0.33" height="22.85" style="stroke-width:0;fill:black"/>
<rect x="28.050" y="0" width="0.33" height="22.85" style="stroke-width:0;fill:white"/>
<rect x="28.380" y="0" width="0.33" height="22.85" style="stroke-width:0;fill:black"/>
<rect x="28.710" y="0" width="0.33" height="22.85" style="stroke-width:0;fill:white"/>
<rect x="29.040" y="0" width="0.33" height="22.85" style="stroke-width:0;fill:white"/>
<rect x="29.370" y="0" width="0.33" height="22.85" style="stroke-width:0;fill:black"/>
<rect x="29.700" y="0" width="0.33" height="22.85" style="stroke-width:0;fill:black"/>
<rect x="30.030" y="0" width="0.33" height="22.85" style="stroke-width:0;fill:black"/>
<rect x="30.360" y="0" width="0.33" height="22.85" style="stroke-width:0;fill:white"/>
<rect x="30.690" y="0" width="0.33" height="22.85" style="stroke-width:0;fill:black"/>
<rect x="31.020" y="0" width="0.33" height="22.85" style="stroke-width:0;fill:white"/>
<rect x="31.350" y="0" width="0.33" height="22.85" style="stroke-width:0;fill:white"/>
<rect x="31.680" y="0" width="0.33" height="22.85" style="stroke-width:0;fill:black"/>
<rect x="32.010" y="0" width="0.33" height="22.85" style="stroke-width:0;fill:white"/>
<rect x="32.340" y="0" width="0.33" height="22.85" style="stroke-width:0;fill:white"/>
<rect x="32.670" y="0" width="0.33" height="22.85" style="stroke-width:0;fill:black"/>
<rect x="33.000" y="0" width="0.33" height="22.85" style="stroke-width:0;fill:black"/>
<rect x="33.330" y="0" width="0.33" height="22.85" style="stroke-width:0;fill:black"/>
<rect x="33.660" y="0" width="0.33" height="22.85" style="stroke-width:0;fill:white"/>
<rect x="33.990" y="0" width="0.33" height="25.40" style="stroke-width:0;fill:black"/>
<rect x="34.320" y="0" width="0.33" height="25.40" style="stroke-width:0;fill:white"/>
<rect x="34.650" y="0" width="0.33" height="25.40" style="stroke-width:0;fill:black"/>
<rect x="34.980" y="0" width="0.33" height="22.85" style="stroke-width:0;fill:white"/>
<rect x="35.310" y="0" width="0.33" height="22.85" style="stroke-width:0;fill:white"/>
<rect x="35.640" y="0" width="0.33" height="22.85" style="stroke-width:0;fill:white"/>
<rect x="35.970" y="0" width="0.33" height="22.85" style="stroke-width:0;fill:white"/>
<rect x="36.300" y="0" width="0.33" height="22.85" style="stroke-width:0;fill:white"/>
<rect x="36.630" y="0" width="0.33" height="22.85" style="stroke-width:0;fill:white"/>
<rect x="36.960" y="0" width="0.33" height="22.85" style="stroke-width:0;fill:white"/>
</svg>

